<svg width="48" height="48" viewBox="0 0 68 68" fill="none" xmlns="http://www.w3.org/2000/svg">
<g opacity="0.8">
<path d="M59.5 52.4167C59.5 56.3295 56.3295 59.5 52.4167 59.5H15.5833C11.6719 59.5 8.5 56.3295 8.5 52.4167V15.5833C8.5 11.6705 11.6719 8.5 15.5833 8.5H52.4167C56.3295 8.5 59.5 11.6705 59.5 15.5833V52.4167Z" fill="#3F51B5"/>
<path d="M48.688 35.4167H43.9167V53.8334H36.8334V35.4167H32.5834V29.75H36.8334V26.3359C36.8362 21.3662 38.9003 18.4167 44.7554 18.4167H49.5834V24.0834H46.3435C44.064 24.0834 43.9167 24.9334 43.9167 26.5243V29.75H49.5834L48.688 35.4167Z" fill="white"/>
</g>
</svg>
