<svg width="48" height="48" viewBox="0 0 68 68" fill="none" xmlns="http://www.w3.org/2000/svg">
<g opacity="0.8">
<path d="M59.0324 19.0967C58.4658 19.465 57.6583 19.805 57.3183 20.1875C57.1908 20.315 57.1199 20.4567 57.1483 20.5983V22.0575L56.7233 23.4883L56.2983 24.905L55.8308 26.4633L54.8674 29.6508L53.9324 32.7958L53.2241 35.1617C53.2241 35.53 53.2099 35.8983 53.1816 36.2525C53.0824 37.6125 52.7991 38.9158 52.3458 40.1342C52.0766 40.885 51.7508 41.6075 51.3541 42.2875C51.2124 42.5567 51.0424 42.8258 50.8724 43.0808C50.3058 43.9733 49.6258 44.795 48.8749 45.5175C48.2941 46.0983 47.6566 46.6367 46.9624 47.09C46.9624 47.09 46.9624 47.09 46.9483 47.09C46.8349 47.1892 46.7074 47.2742 46.5658 47.345C46.1266 47.6425 45.6591 47.8975 45.1774 48.1242C44.8516 48.2942 44.5258 48.4358 44.1858 48.5633C44.1149 48.6058 44.0299 48.6342 43.9591 48.6625C43.1516 49.045 42.2166 49.3 41.2816 49.4275C41.2249 49.4417 41.1824 49.4417 41.1258 49.4558C40.5591 49.555 40.0066 49.64 39.4399 49.6825C39.1849 49.7108 38.9158 49.725 38.6608 49.725L37.6549 49.6683L32.8099 49.4133C32.8099 49.3992 32.7958 49.4133 32.7958 49.4133L30.3591 49.2858C30.1749 49.2858 29.9766 49.2858 29.7924 49.2717C29.0274 49.2433 28.2908 49.1583 27.5541 49.0025C27.5399 49.0025 27.5399 49.0025 27.5399 49.0025C26.1941 48.7475 24.9049 48.2942 23.7008 47.685C23.0349 47.345 22.3833 46.9625 21.7741 46.5233C21.5191 46.3392 21.2783 46.1408 21.0374 45.9283C20.3574 45.3617 19.7483 44.7525 19.1816 44.1292C19.0966 44.0442 19.0258 43.9592 18.9549 43.8742C18.8699 43.7892 18.7849 43.69 18.7141 43.605C18.1758 42.925 17.7224 42.2308 17.3541 41.4942C17.0141 40.8425 16.7449 40.1483 16.5324 39.3833C16.4474 39.1142 16.3766 38.8592 16.3199 38.5758C16.3058 38.5617 16.2916 38.5333 16.2916 38.505C16.1499 37.9242 16.0224 37.315 15.9516 36.7058C15.8666 36.2383 15.8241 35.7708 15.8241 35.2892C15.7958 35.105 15.7958 34.9067 15.7958 34.7225L18.5016 30.5433L21.1508 26.4633L22.3549 24.6075L23.4458 22.9358L23.8141 22.355V20.8958C23.8424 20.57 23.8566 20.23 23.8424 19.9183C23.8283 18.9267 23.6299 17.9633 23.3041 17.0425C22.9924 16.065 22.5533 15.1442 22.0999 14.2942C21.5616 13.3167 20.9949 12.4383 20.5274 11.645C19.8333 10.4833 19.3516 9.53417 19.4791 8.86833C20.4991 8.6275 21.5758 8.5 22.6666 8.5H45.3333C51.2549 8.5 56.3549 12.1833 58.4658 17.3683C58.6924 17.9208 58.8908 18.5017 59.0324 19.0967Z" fill="#304FFE"/>
<path d="M59.5 22.6667V23.0492L57.545 24.1825L56.2983 24.905L54.9242 25.6983L52.1758 27.2992L49.4842 28.8575L46.7358 30.4442L45.645 31.0817C45.645 31.7617 45.475 32.385 45.1633 32.9517C44.7242 33.7733 43.9875 34.4533 43.0525 35.0342C42.1033 35.615 40.9417 36.0825 39.6383 36.4225C39.6383 36.4225 39.6383 36.4083 39.6242 36.4225C34.5808 37.7258 27.6958 37.1308 24.3525 34.6375C23.4175 33.9433 22.7658 33.0933 22.4825 32.1158C22.3975 31.79 22.355 31.4358 22.355 31.0817V20.8958C22.3692 20.6833 22.2275 20.4708 21.9725 20.2583C21.2075 19.6492 19.4083 19.0683 17.3967 18.4875C15.8242 18.0483 14.1383 17.6092 12.7217 17.1842C11.6025 16.8442 10.6533 16.5042 10.0867 16.1783C10.3417 15.6825 10.6392 15.1867 10.9508 14.7192C12.9342 11.815 15.9658 9.67583 19.4792 8.86833C20.4992 8.6275 21.5758 8.5 22.6667 8.5H37.9667C45.5742 9.83167 52.5867 12.9342 58.4658 17.3683C58.6925 17.9208 58.8908 18.5017 59.0325 19.0967C59.2875 20.0317 59.4433 20.995 59.4858 22.0008C59.5 22.2133 59.5 22.44 59.5 22.6667Z" fill="#4928F4"/>
<path d="M59.5 22.6667V28.9142L59.1883 29.8775L58.1258 33.1784L57.0209 36.5784L56.44 38.3917L55.9017 40.0775L55.3775 41.6784L54.8675 43.265L54.5984 44.1009L54.2442 45.2059C54.2442 46.2825 54.2159 47.2317 54.145 48.0392C54.1309 48.1242 54.1167 48.2092 54.1167 48.2942C54.0317 49.045 53.9183 49.6825 53.7342 50.2209C53.72 50.3059 53.6917 50.3909 53.6633 50.4617C53.295 51.4817 52.7425 52.1334 51.9208 52.5584C51.7225 52.6717 51.4958 52.7567 51.255 52.8417C50.5042 53.0967 49.555 53.2242 48.3933 53.295C47.5433 53.3517 46.5658 53.3659 45.4608 53.3659H44.4833L42.7975 53.295L42.5 53.2809L39.4258 53.1534L36.3092 53.0259L26.0383 52.6009L23.375 52.4875H23.0067C21.9017 52.4734 20.9525 52.4025 20.1308 52.2892C18.9408 52.105 18.02 51.7934 17.3258 51.3259C16.3342 50.6884 15.7533 49.7534 15.4133 48.45C15.3283 48.1384 15.2575 47.8125 15.215 47.4584C15.0733 46.6367 15.0025 45.6875 14.96 44.625C14.96 44.4125 14.96 44.2 14.9458 43.9734C14.9317 43.9592 14.9458 43.9592 14.9458 43.9592V43.1375C14.9317 42.7267 14.9317 42.3017 14.9317 41.8625L15.0025 39.5817L15.045 37.9525L15.1017 36.0542V35.785L15.2008 32.3L15.3 28.815L15.3992 25.5425L15.4842 22.3267L15.5125 21.4767C15.5125 21.0375 14.025 20.7825 12.3675 20.57C11.05 20.4 9.60501 20.2442 8.74084 20.0459C8.81168 19.72 8.88251 19.3942 8.96751 19.0825C9.22251 18.0625 9.60501 17.0992 10.0867 16.1784C10.3417 15.6825 10.6392 15.1867 10.9508 14.7192C14.0108 13.3734 17.1983 12.325 20.5275 11.645C23.4458 11.0359 26.4917 10.71 29.6367 10.71C40.0633 10.71 49.6967 14.2375 57.3183 20.1875C58.055 20.7542 58.7775 21.3634 59.4858 22.0009C59.5 22.2134 59.5 22.44 59.5 22.6667Z" fill="#6200EA"/>
<path d="M59.5 26.0241V32.4558L58.7208 33.9575L57.2333 36.8616L56.44 38.3916L55.7175 39.7941L55.4058 40.4033C55.4058 40.8425 55.4058 41.2675 55.3775 41.6783C55.3775 42.2875 55.3492 42.8683 55.3067 43.4066C55.25 44.0441 55.165 44.625 55.08 45.1633C54.8675 46.2825 54.57 47.2458 54.145 48.0391C54.0883 48.1383 54.0317 48.2375 53.975 48.3225C53.8192 48.5775 53.635 48.8183 53.4367 49.045C53.1817 49.3566 52.8983 49.6258 52.5725 49.8525C52.0908 50.2208 51.5242 50.5183 50.8725 50.745C50.065 51.0425 49.13 51.2408 48.025 51.3541C47.3025 51.425 46.5092 51.4675 45.645 51.4675L45.05 51.4958L42.1033 51.6658H42.0892L38.9583 51.85L35.7708 52.0341L31.3792 52.2891L26.0383 52.6008L25.2592 52.6433C24.5367 52.6433 23.8567 52.6008 23.205 52.5158C23.1342 52.5016 23.0775 52.4875 23.0067 52.4875C22.0433 52.3316 21.165 52.0766 20.3717 51.7225C19.4083 51.2975 18.5725 50.7308 17.8642 50.0508C17.2408 49.4416 16.7025 48.7475 16.2633 47.9683C16.1642 47.7841 16.065 47.6141 15.98 47.4158C15.555 46.58 15.215 45.645 14.96 44.625C14.9175 44.455 14.875 44.2708 14.8467 44.0866C14.7617 43.7608 14.6908 43.4208 14.6483 43.0666C14.4925 42.16 14.4075 41.1966 14.365 40.1908V40.1766C14.3508 39.7658 14.3367 39.3691 14.3367 38.9441L13.6425 37.2866L13.5433 37.0316L13.4583 36.8191L12.3958 34.2833L12.2258 33.8725L11.2058 31.4216L10.0725 28.6875C10.0725 28.6875 10.0725 28.6875 10.0583 28.6875L8.91083 25.925L8.5 24.9191V22.6666C8.5 21.7741 8.585 20.8958 8.74083 20.0458C8.81167 19.72 8.8825 19.3941 8.9675 19.0825C10.1717 18.3883 11.4325 17.7508 12.7217 17.1841C15.6683 15.8666 18.8275 14.8891 22.1 14.2941C24.5367 13.855 27.0725 13.6141 29.6367 13.6141C39.9925 13.6141 49.385 17.3683 56.7233 23.4883C57.0067 23.715 57.2758 23.9416 57.545 24.1825C58.2108 24.7633 58.8625 25.3725 59.5 26.0241Z" fill="#673AB7"/>
<path d="M59.5 30.2458V37.5275L58.6925 39.2133L57.1625 42.4008L57.1483 42.4433C57.1483 43.0525 57.12 43.605 57.0775 44.1008C56.9358 45.73 56.5392 46.7641 55.8875 47.4016C55.42 47.8833 54.8392 48.1525 54.1167 48.2941C54.0742 48.3083 54.0175 48.3083 53.975 48.3225C53.7483 48.365 53.5075 48.3933 53.2525 48.3933C52.3742 48.4783 51.34 48.4216 50.15 48.3366C50.0225 48.3366 49.8808 48.3225 49.7392 48.3083C48.875 48.2516 47.9542 48.195 46.9342 48.1525C46.3817 48.1383 45.8008 48.1241 45.2058 48.1241H45.1775L43.7467 48.2375H43.7325L40.5167 48.4641L36.8475 48.7475L36.3092 48.79L32.0167 49.1016L29.7925 49.2716L27.5967 49.4275C27.2142 49.4275 26.8458 49.4275 26.4775 49.4133C26.4775 49.4133 26.4633 49.3991 26.4633 49.4133C24.8625 49.385 23.4317 49.2858 22.1567 49.045C20.9808 48.8466 19.9467 48.535 19.0683 48.0675C18.1617 47.6283 17.4108 47.005 16.8017 46.2116C16.2208 45.4325 15.7958 44.455 15.5267 43.2791C15.5267 43.265 15.5267 43.265 15.5267 43.265C15.3283 42.3158 15.215 41.2108 15.215 39.9641L15.0025 39.5816L13.7417 37.3291L13.5575 37.0175L13.4583 36.8191L12.1408 34.4816L11.4892 33.3058L10.6675 31.8466L9.25083 29.3108L8.5 27.9791V22.7658C9.74667 21.9441 11.0358 21.2216 12.3675 20.57C13.9825 19.7483 15.6542 19.0541 17.3967 18.4875C19.295 17.8641 21.2783 17.3683 23.3042 17.0425C25.3583 16.7025 27.4692 16.5325 29.6367 16.5325C39.27 16.5325 48.11 19.975 54.9242 25.6983C55.2358 25.9391 55.5333 26.2083 55.8308 26.4633C57.0208 27.5258 58.1542 28.6733 59.1883 29.8775C59.3017 30.005 59.415 30.1183 59.5 30.2458Z" fill="#8E24AA"/>
<path d="M59.5 35.0058V45.2483C59.16 45.05 58.6925 44.8091 58.1117 44.5541C57.8 44.3983 57.4458 44.2425 57.0775 44.1008C56.5392 43.86 55.9583 43.6333 55.3067 43.4066C55.165 43.35 55.0233 43.3075 54.8675 43.265C54.6125 43.1658 54.3433 43.0808 54.0742 42.9958C53.2383 42.7408 52.3175 42.5 51.3542 42.2875C50.9858 42.2166 50.6033 42.1458 50.2208 42.0891C48.9883 41.8766 47.6708 41.7491 46.2967 41.735C46.1833 41.7208 46.0558 41.7208 45.9425 41.7208L42.3017 41.7491L37.3433 41.7775H37.3292L26.7183 41.8625C23.3467 41.8625 21.2783 42.67 20.0317 42.9958C20.0317 42.9958 20.0175 42.9958 20.0175 43.01C18.7 43.35 18.2892 43.1375 18.1758 40.8283C18.1475 40.1908 18.1333 39.3691 18.1333 38.3633L17.34 37.7541L15.9517 36.7058L15.1017 36.0541L14.9317 35.9266L12.58 34.1416L12.2258 33.8725L11.4892 33.3058L10.1292 32.2858L8.5 31.0391V26.2225C8.64167 26.1091 8.76917 26.01 8.91083 25.925C10.965 24.5083 13.1608 23.3041 15.4842 22.3266C17.5525 21.4483 19.7342 20.7541 21.9725 20.2583C22.5817 20.1308 23.205 20.0033 23.8425 19.9183C25.7267 19.5925 27.6675 19.4366 29.6367 19.4366C38.1508 19.4366 45.9708 22.3975 52.1758 27.2991C53.1108 28.0358 54.0175 28.815 54.8675 29.6508C56.0292 30.7558 57.12 31.9316 58.1258 33.1783C58.3242 33.4333 58.5225 33.6883 58.7208 33.9575C58.99 34.2975 59.245 34.6516 59.5 35.0058Z" fill="#C2185B"/>
<path d="M59.5 40.6866V45.3333C59.5 46.2542 59.415 47.1608 59.245 48.0392C58.99 49.3425 58.5508 50.5891 57.9558 51.7508C57.6442 51.8216 57.29 51.8217 56.8933 51.765C56.0008 51.6092 54.9525 51.1416 53.8192 50.5325C53.7625 50.5183 53.7058 50.49 53.6633 50.4616C53.3092 50.2775 52.9408 50.0791 52.5725 49.8525C51.8217 49.4416 51.0283 48.9883 50.235 48.5633C50.065 48.4783 49.895 48.3933 49.7392 48.3083C48.8325 47.8408 47.8975 47.4158 46.9625 47.09C46.9625 47.09 46.9625 47.09 46.9483 47.09C46.75 47.0192 46.5375 46.9483 46.325 46.8916C45.5175 46.665 44.6958 46.5233 43.9025 46.5233L42.3442 46.07L35.445 44.0725C35.445 44.0725 35.445 44.0725 35.4308 44.0725L31.195 42.84H31.1808L29.3392 42.3016C24.0125 42.3016 20.74 44.5683 19.1533 43.7041C18.53 43.3783 18.1617 42.5566 18.0342 40.9416C17.9917 40.4883 17.9775 39.9783 17.9775 39.3833L16.32 38.5758L16.2492 38.5475H16.235L15.045 37.9525L13.7417 37.3291L13.6425 37.2866L13.4017 37.1591L10.625 35.8133L8.5 34.7791V29.92C8.74083 29.7075 8.99583 29.5091 9.25083 29.3108C9.52 29.0983 9.78917 28.9 10.0583 28.6875C10.0725 28.6875 10.0725 28.6875 10.0725 28.6875C11.7442 27.4833 13.515 26.4208 15.3992 25.5425C17.595 24.4941 19.9325 23.6866 22.355 23.1625C22.7092 23.0775 23.0775 22.9925 23.4458 22.9358C25.4575 22.5533 27.5258 22.355 29.6367 22.355C37.1025 22.355 43.9592 24.7775 49.4842 28.8575C51.085 30.0475 52.5725 31.365 53.9325 32.7958C55.0517 33.9716 56.0858 35.2466 57.0208 36.5783C57.0917 36.6775 57.1625 36.7766 57.2333 36.8616C57.7575 37.6266 58.2392 38.4058 58.6925 39.2133C58.99 39.695 59.245 40.1908 59.5 40.6866Z" fill="#D81B60"/>
<path d="M59.245 48.0392C58.99 49.3425 58.5508 50.5892 57.9558 51.7508C57.6867 52.275 57.3892 52.7708 57.0633 53.2525C56.865 53.55 56.6525 53.8333 56.44 54.1025C55.93 53.9042 55.1792 53.6208 54.2583 53.3092C54.2583 53.3092 54.2583 53.3092 54.2583 53.295C53.5642 53.0542 52.7708 52.7992 51.9208 52.5583C51.68 52.4875 51.4392 52.4167 51.1842 52.3458C50.1783 52.0767 49.13 51.8358 48.11 51.6942C47.26 51.5525 46.4242 51.4675 45.645 51.4675L44.9933 51.2833H44.9792L41.5508 50.2917L39.44 49.6825L37.0883 49.0025H37.0742L36.3092 48.79L27.0583 46.1267L24.395 45.3617L22.4117 44.8942L19.1817 44.1292L18.785 44.03C18.785 44.03 18.785 44.03 18.7708 44.03L15.5267 43.2792C15.5267 43.265 15.5267 43.265 15.5267 43.265L14.9458 43.1375L14.6483 43.0667L12.2825 42.5142L12.0133 42.4433L10.0017 40.7858L8.5 39.525V33.745C9.02417 33.235 9.5625 32.7533 10.1292 32.2858C10.2992 32.13 10.4833 31.9883 10.6675 31.8467C10.8375 31.705 11.0217 31.5633 11.2058 31.4217C12.495 30.4442 13.855 29.5658 15.3 28.815C17.1417 27.8233 19.0967 27.03 21.1508 26.4633C21.5475 26.3358 21.9442 26.2225 22.355 26.1375C24.6783 25.5567 27.115 25.2592 29.6367 25.2592C35.9692 25.2592 41.8625 27.1717 46.7358 30.4442C49.1583 32.0733 51.34 34.0283 53.1817 36.2525C54.1167 37.3717 54.9667 38.5475 55.7175 39.7942C55.7883 39.8933 55.845 39.9783 55.9017 40.0775C56.355 40.8283 56.78 41.6075 57.1625 42.4008C57.5167 43.1092 57.8283 43.8175 58.1117 44.5542C58.565 45.6875 58.9333 46.8492 59.245 48.0392Z" fill="#F50057"/>
<path d="M57.0633 53.2525C56.865 53.55 56.6525 53.8333 56.44 54.1025C55.8167 54.8817 55.1367 55.59 54.3717 56.2133C53.7058 56.7658 52.9975 57.2617 52.2467 57.6867C51.9633 57.6158 51.68 57.5308 51.3825 57.4175C50.4475 57.0917 49.47 56.5533 48.5633 55.9867C47.2033 55.1225 46.0275 54.1875 45.5033 53.7625C45.305 53.5925 45.2058 53.5075 45.2058 53.5075L42.7975 53.295L42.5 53.2667L39.3833 52.9975L36.1533 52.7142L31.3792 52.2892L23.8142 51.6233L23.7858 51.6092L21.1225 50.32L18.4308 49.0167L16.2633 47.9683L15.7958 47.7417L15.215 47.4583L13.2033 46.4808L10.5258 45.1917L9.69 44.7808L8.5 44.4125V38.08C9.16583 37.2867 9.87417 36.5358 10.625 35.8133C11.1067 35.36 11.6167 34.9067 12.1408 34.4817C12.2258 34.4108 12.3108 34.34 12.3958 34.2833C12.4525 34.2125 12.5233 34.17 12.58 34.1417C13.4158 33.4617 14.2942 32.8525 15.2008 32.3C16.2492 31.6342 17.3542 31.0392 18.5017 30.5433C19.7342 29.9908 21.0233 29.5233 22.355 29.1692C24.6642 28.5175 27.115 28.1775 29.6367 28.1775C35.4167 28.1775 40.7575 29.9342 45.1633 32.9517C47.9825 34.8783 50.4192 37.315 52.3458 40.1342C52.9833 41.0408 53.55 42.0042 54.0742 42.9958C54.2583 43.3642 54.4425 43.7325 54.5983 44.1008C54.7683 44.455 54.9242 44.8092 55.08 45.1633C55.3775 45.9 55.6467 46.6367 55.8875 47.4017C56.3408 48.8183 56.6808 50.2633 56.8933 51.765C56.9642 52.2608 57.0208 52.7567 57.0633 53.2525Z" fill="#FF1744"/>
<path d="M54.3858 55.845C54.3858 55.9583 54.3858 56.0858 54.3717 56.2133C53.7058 56.7658 52.9975 57.2617 52.2467 57.6867C51.935 57.8567 51.6233 58.0267 51.2975 58.1683C50.9717 58.3242 50.6458 58.4658 50.3058 58.5933C49.8242 58.3383 49.1725 58.0267 48.4783 57.7292C47.5008 57.29 46.4383 56.8933 45.6167 56.7658C45.4183 56.7233 45.2342 56.7092 45.0642 56.7092L42.7408 56.4117H42.7125L39.8225 56.0292L36.9042 55.6467L35.5442 55.4767L24.8342 54.0883C24.14 54.0883 23.4033 54.0458 22.6383 53.9467C21.7033 53.8617 20.7258 53.72 19.7483 53.5217C18.785 53.3517 17.8075 53.125 16.8725 52.8842C15.895 52.6575 14.9317 52.3883 14.0392 52.1333C13.005 51.8217 12.0417 51.5242 11.2342 51.255C10.5683 51.0425 10.0017 50.8442 9.5625 50.6883C9.3075 50.0792 9.095 49.4417 8.93917 48.79C8.64167 47.685 8.5 46.5233 8.5 45.3333V42.9675C8.95333 42.2167 9.44917 41.48 10.0017 40.7858C11.0075 39.4542 12.155 38.2358 13.4017 37.1592C13.4442 37.1025 13.5008 37.06 13.5433 37.0317L13.5575 37.0175C13.9967 36.6208 14.45 36.2667 14.9317 35.9267C14.9883 35.87 15.045 35.8275 15.1017 35.785C15.3283 35.615 15.5692 35.445 15.8242 35.2892C17.85 33.915 20.0883 32.8383 22.4825 32.1158C24.7492 31.4358 27.1433 31.0817 29.6367 31.0817C34.5808 31.0817 39.1992 32.5408 43.0525 35.0342C45.9 36.8617 48.3508 39.27 50.2208 42.0892C50.4475 42.415 50.66 42.7408 50.8725 43.0808C51.85 44.7383 52.6575 46.5233 53.2525 48.3933C53.3233 48.6058 53.38 48.8183 53.4367 49.045C53.55 49.4275 53.6492 49.8242 53.7342 50.2208C53.7625 50.32 53.7908 50.4192 53.8192 50.5325C54.0175 51.425 54.1592 52.36 54.2583 53.295C54.2583 53.3092 54.2583 53.3092 54.2583 53.3092C54.3433 54.145 54.3858 54.995 54.3858 55.845Z" fill="#FF5722"/>
<path d="M51.4675 55.845C51.4675 56.3408 51.4392 56.8792 51.3825 57.4175C51.3542 57.6725 51.3259 57.9275 51.2975 58.1683C50.9717 58.3242 50.6459 58.4658 50.3059 58.5933C49.6684 58.8342 49.0167 59.0325 48.3509 59.1742C47.8975 59.2733 47.43 59.3583 46.9625 59.4008H46.9484C46.5092 59.1317 45.9992 58.8058 45.475 58.4375C44.5259 57.7717 43.5342 57.0208 42.7409 56.4117C42.7267 56.3975 42.7267 56.3975 42.7125 56.3833C41.8767 55.7458 41.2817 55.2642 41.2817 55.2642L39.78 55.3208L36.89 55.42L35.5442 55.4767L30.1325 55.675L25.5567 55.845C25.2592 55.8592 24.905 55.8592 24.4659 55.845H24.4517C23.8567 55.8308 23.1484 55.7883 22.3692 55.7175C21.4625 55.6467 20.4709 55.5617 19.465 55.4625C18.4875 55.3492 17.4959 55.2358 16.5467 55.1225C15.4984 55.0092 14.5067 54.8817 13.6567 54.7683C12.9909 54.6833 12.41 54.6125 11.9425 54.5558C11.5459 54.1025 11.1917 53.635 10.8517 53.125C10.3417 52.36 9.90254 51.5525 9.56254 50.6883C9.30754 50.0792 9.09504 49.4417 8.93921 48.79C9.35004 47.5292 9.88838 46.3392 10.5259 45.1917C11.0359 44.2567 11.6309 43.3642 12.2825 42.5142C12.92 41.6783 13.6142 40.8992 14.365 40.1908V40.1767C14.5775 39.9642 14.79 39.7658 15.0025 39.5817C15.3992 39.2133 15.81 38.8733 16.235 38.5475H16.2492C16.2634 38.5192 16.2775 38.5192 16.2917 38.505C16.6317 38.2358 16.9859 37.995 17.34 37.7542C19.4367 36.3233 21.8025 35.2608 24.3525 34.6375C26.0384 34.2267 27.8092 34 29.6367 34C33.235 34 36.635 34.8642 39.6242 36.4225H39.6384C42.2025 37.74 44.4692 39.5533 46.2967 41.735C47.3025 42.8967 48.1667 44.1717 48.875 45.5175C49.3709 46.4242 49.7959 47.3733 50.15 48.3367C50.1784 48.4217 50.2067 48.4925 50.235 48.5633C50.4759 49.2717 50.6884 50.0083 50.8725 50.745C51 51.2692 51.0992 51.8075 51.1842 52.3458C51.2125 52.5158 51.2409 52.6717 51.255 52.8417C51.3967 53.8192 51.4675 54.825 51.4675 55.845Z" fill="#FF6F00"/>
<path d="M48.5634 55.845V55.9867C48.5634 56.4683 48.5209 57.0775 48.4784 57.7292C48.4359 58.2108 48.3934 58.7067 48.3509 59.1742C47.8975 59.2733 47.43 59.3583 46.9625 59.4008H46.9484C46.41 59.4717 45.8859 59.5 45.3334 59.5H42.8542L42.3159 59.3442L39.525 58.4942L36.6917 57.6442L30.1325 55.675L27.2992 54.825C27.2992 54.825 26.1234 55.2925 24.4659 55.845H24.4517C23.8142 56.0575 23.12 56.2842 22.3834 56.5108C21.4625 56.78 20.485 57.0492 19.5217 57.2617C18.53 57.4883 17.5525 57.6583 16.6742 57.7292C16.405 57.7575 16.1359 57.7717 15.895 57.7717C15.1017 57.3325 14.3367 56.8083 13.6425 56.2275C13.0334 55.7175 12.4667 55.165 11.9425 54.5558C11.5459 54.1025 11.1917 53.635 10.8517 53.125C10.9509 52.4875 11.0642 51.8642 11.2342 51.255C11.6592 49.5692 12.325 47.9542 13.2034 46.4808C13.685 45.645 14.2234 44.8375 14.8467 44.0867C14.8609 44.0442 14.9034 44.0017 14.9459 43.9733C14.9317 43.9592 14.9459 43.9592 14.9459 43.9592C15.13 43.7183 15.3284 43.4917 15.5267 43.2792C15.5267 43.265 15.5267 43.265 15.5267 43.265C16.1075 42.6417 16.7025 42.0467 17.3542 41.4942C17.5809 41.31 17.7934 41.1258 18.0342 40.9417C18.0767 40.8992 18.1192 40.8708 18.1759 40.8283C21.3634 38.3917 25.3442 36.9183 29.6367 36.9183C34.51 36.9183 38.9442 38.7458 42.3017 41.7492C43.9167 43.2083 45.2909 44.9508 46.325 46.8917C46.41 47.0333 46.495 47.1892 46.5659 47.345C46.6934 47.6 46.8209 47.8692 46.9342 48.1525C47.4017 49.1725 47.77 50.2492 48.025 51.3542C48.0534 51.4675 48.0817 51.5808 48.11 51.6942C48.2234 52.2183 48.3225 52.7567 48.3934 53.295C48.5067 54.1308 48.5634 54.9808 48.5634 55.845Z" fill="#FF9800"/>
<path d="M45.645 55.845C45.645 56.1283 45.6308 56.44 45.6166 56.7658C45.5883 57.29 45.5458 57.8567 45.475 58.4375C45.4466 58.7917 45.39 59.1458 45.3333 59.5H37.57L36.0683 59.2592L30.2033 58.3242L29.3675 58.1967L27.455 57.885C26.6191 57.885 24.8058 58.2533 22.8933 58.6075C21.8875 58.7917 20.8675 58.99 19.9466 59.1175C19.8333 59.1317 19.72 59.1458 19.6208 59.16H19.6066C18.615 58.9475 17.6516 58.6217 16.745 58.1967C16.4616 58.0692 16.1783 57.9275 15.895 57.7717C15.1016 57.3325 14.3366 56.8083 13.6425 56.2275C13.6283 56.0575 13.6141 55.9158 13.6141 55.845C13.6141 55.4767 13.6283 55.1225 13.6566 54.7683C13.7133 53.8617 13.8408 52.9833 14.0391 52.1333C14.3508 50.8442 14.8041 49.5975 15.4133 48.45C15.5266 48.2092 15.6541 47.9683 15.7958 47.7417C15.8525 47.6283 15.9233 47.5292 15.98 47.4158C16.235 47.005 16.5183 46.6083 16.8016 46.2117C17.3966 45.4325 18.0625 44.6958 18.7708 44.03C18.785 44.03 18.785 44.03 18.785 44.03C18.8416 43.9733 18.8983 43.9167 18.955 43.8742C19.0258 43.8175 19.0825 43.7467 19.1533 43.7042C19.4366 43.4492 19.72 43.2225 20.0175 43.01C20.0175 42.9958 20.0316 42.9958 20.0316 42.9958C22.7091 40.9983 26.0241 39.8225 29.6366 39.8225C32.4416 39.8225 35.0483 40.5308 37.3291 41.7775H37.3433C39.2983 42.8542 40.9983 44.3133 42.3441 46.07C42.8683 46.75 43.3358 47.4725 43.7325 48.2375H43.7466C43.8175 48.3792 43.8883 48.5208 43.9591 48.6625C44.3841 49.4983 44.7241 50.3767 44.9791 51.2833H44.9933C45.0075 51.3542 45.0358 51.425 45.05 51.4958C45.22 52.105 45.3616 52.7283 45.4608 53.3658C45.475 53.4933 45.4891 53.635 45.5033 53.7625C45.6025 54.4425 45.645 55.1367 45.645 55.845Z" fill="#FFC107"/>
<path d="M42.7408 55.6892C42.7408 55.9158 42.7408 56.1567 42.7125 56.3833V56.3975C42.7125 56.4117 42.7125 56.4117 42.7125 56.4117C42.6841 57.4317 42.5425 58.4375 42.3158 59.3442C42.3158 59.4008 42.3016 59.4433 42.2733 59.5H35.6575L30.2033 58.3242L29.4808 58.1683L29.3675 58.1967L23.3183 59.4433L23.0491 59.5H22.6666C21.76 59.5 20.8675 59.415 20.0033 59.245C19.8758 59.2167 19.7483 59.1883 19.6208 59.16H19.6066C18.615 58.9475 17.6516 58.6217 16.745 58.1967C16.7166 58.0408 16.6883 57.885 16.6741 57.7292C16.575 57.12 16.5325 56.4825 16.5325 55.845C16.5325 55.6042 16.5325 55.3633 16.5466 55.1225C16.5891 54.3575 16.7025 53.6067 16.8725 52.8842C16.9858 52.3458 17.1416 51.8217 17.3258 51.3258C17.4816 50.8867 17.6658 50.4617 17.8641 50.0508C18.0341 49.6967 18.2325 49.3567 18.4308 49.0167C18.6291 48.6908 18.8416 48.3792 19.0683 48.0675C19.635 47.2883 20.3008 46.5658 21.0375 45.9283C21.4625 45.56 21.93 45.2058 22.4116 44.8942C24.48 43.5342 26.9591 42.7408 29.6366 42.7408C30.1608 42.7408 30.6708 42.7692 31.1666 42.84H31.195C32.7108 43.01 34.1275 43.435 35.4308 44.0725C35.445 44.0725 35.445 44.0725 35.445 44.0725C37.4991 45.0783 39.2416 46.5942 40.5166 48.4642C40.7291 48.7758 40.9416 49.1158 41.1258 49.4558C41.2816 49.725 41.4233 50.0083 41.5508 50.2917C41.7491 50.7308 41.9333 51.1983 42.0891 51.6658H42.1033C42.2591 52.19 42.4008 52.7142 42.5 53.2667V53.2808C42.6558 54.06 42.7408 54.8675 42.7408 55.6892Z" fill="#FFD54F"/>
<path d="M39.8225 55.9867V56.0292C39.8225 56.865 39.7233 57.6867 39.525 58.4942C39.4541 58.8342 39.355 59.1742 39.2275 59.5H32.8808L29.6366 58.6075L26.3925 59.5H22.6666C21.76 59.5 20.8675 59.415 20.0033 59.245C19.975 59.2025 19.9608 59.16 19.9466 59.1175C19.7483 58.5083 19.5925 57.8992 19.5216 57.2617C19.465 56.8508 19.4366 56.4259 19.4366 55.9867C19.4366 55.8167 19.4366 55.6325 19.465 55.4625C19.4791 54.7967 19.5783 54.145 19.7483 53.5217C19.8333 53.0967 19.9608 52.6858 20.1308 52.2892C20.1875 52.0908 20.2725 51.9067 20.3716 51.7225C20.5841 51.2408 20.8391 50.7734 21.1225 50.32C21.4341 49.8667 21.7741 49.4417 22.1566 49.045C22.61 48.535 23.12 48.0675 23.7008 47.685C24.6925 46.9625 25.8258 46.4242 27.0583 46.1267C27.88 45.9 28.7441 45.7867 29.6366 45.7867C32.47 45.7867 35.0058 46.92 36.8475 48.7475C36.9183 48.8183 37.0033 48.9033 37.0741 49.0025H37.0883C37.2866 49.215 37.4708 49.4275 37.655 49.6684C38.1791 50.3342 38.6183 51.0567 38.9583 51.85C39.1283 52.2183 39.27 52.6008 39.3833 52.9975C39.3975 53.0542 39.4116 53.0967 39.4258 53.1534C39.6241 53.8475 39.7516 54.57 39.78 55.3208C39.8083 55.5333 39.8225 55.76 39.8225 55.9867Z" fill="#FFE082"/>
<path d="M36.9183 55.9867C36.9183 56.5675 36.8475 57.12 36.6916 57.6442C36.55 58.2108 36.3375 58.7492 36.0683 59.2592C36.0258 59.3442 35.9266 59.5 35.9266 59.5H23.3466C23.3325 59.4858 23.3183 59.4575 23.3183 59.4433C23.1483 59.1742 23.0066 58.905 22.8933 58.6075C22.61 57.9558 22.44 57.2475 22.3833 56.5108C22.355 56.3408 22.355 56.1567 22.355 55.9867C22.355 55.9017 22.355 55.8025 22.3691 55.7175C22.3833 55.0942 22.4683 54.4992 22.6383 53.9467C22.78 53.4367 22.9641 52.9692 23.205 52.5158C23.205 52.5158 23.2191 52.5017 23.2191 52.4875C23.3891 52.19 23.5733 51.8925 23.7858 51.6092C24.48 50.6742 25.4008 49.9092 26.4633 49.4134C26.4775 49.4134 26.4775 49.4134 26.4775 49.4134C26.8175 49.2434 27.1716 49.1017 27.54 49.0025C27.54 49.0025 27.54 49.0025 27.5541 49.0025C28.2058 48.8042 28.9141 48.705 29.6366 48.705C30.4725 48.705 31.28 48.8325 32.0166 49.1017C32.2858 49.1725 32.5408 49.2859 32.7958 49.4134C32.7958 49.4134 32.7958 49.4134 32.81 49.4134C34.0283 49.9942 35.0625 50.9008 35.7708 52.0342C35.9125 52.2467 36.04 52.4733 36.1533 52.7142C36.21 52.8133 36.2666 52.9267 36.3091 53.0258C36.635 53.7625 36.8333 54.57 36.89 55.42C36.9041 55.4908 36.9041 55.5617 36.9041 55.6467C36.9183 55.76 36.9183 55.8733 36.9183 55.9867Z" fill="#FFECB3"/>
<path d="M42.5 15.5833H25.5C19.975 15.5833 15.5834 19.975 15.5834 25.5V42.5C15.5834 48.025 19.975 52.4166 25.5 52.4166H42.5C48.025 52.4166 52.4167 48.025 52.4167 42.5V25.5C52.4167 19.975 48.025 15.5833 42.5 15.5833Z" stroke="white" stroke-width="2" stroke-miterlimit="10" stroke-linecap="round" stroke-linejoin="round"/>
<path d="M43.9167 24.0833C44.6991 24.0833 45.3333 23.4491 45.3333 22.6667C45.3333 21.8843 44.6991 21.25 43.9167 21.25C43.1343 21.25 42.5 21.8843 42.5 22.6667C42.5 23.4491 43.1343 24.0833 43.9167 24.0833Z" fill="white"/>
<path d="M34 42.5C38.6944 42.5 42.5 38.6944 42.5 34C42.5 29.3056 38.6944 25.5 34 25.5C29.3056 25.5 25.5 29.3056 25.5 34C25.5 38.6944 29.3056 42.5 34 42.5Z" stroke="white" stroke-width="2" stroke-miterlimit="10" stroke-linecap="round" stroke-linejoin="round"/>
</g>
</svg>
