<svg width="68" height="68" viewBox="0 0 68 68" fill="none" xmlns="http://www.w3.org/2000/svg">
<g filter="url(#filter0_i_3_64)">
<path d="M51.1417 10.625H54.5417C56.1 10.625 57.375 11.9 57.375 13.4583V17.7083C57.375 19.2667 56.1 20.5417 54.5417 20.5417H25.5" stroke="white" stroke-width="3" stroke-miterlimit="10" stroke-linecap="round" stroke-linejoin="round"/>
<path d="M18.4167 20.5417H13.4583C11.9 20.5417 10.625 19.2667 10.625 17.7083V13.4583C10.625 11.9 11.9 10.625 13.4583 10.625H43.6333" stroke="white" stroke-width="3" stroke-miterlimit="10" stroke-linecap="round" stroke-linejoin="round"/>
<path d="M18.8417 38.9584H13.4583C11.9 38.9584 10.625 37.6834 10.625 36.125V31.875C10.625 30.3167 11.9 29.0417 13.4583 29.0417H41.7917" stroke="white" stroke-width="3" stroke-miterlimit="10" stroke-linecap="round" stroke-linejoin="round"/>
<path d="M49.5833 29.0417H54.5417C56.1 29.0417 57.375 30.3167 57.375 31.875V36.125C57.375 37.6834 56.1 38.9584 54.5417 38.9584H26.2083" stroke="white" stroke-width="3" stroke-miterlimit="10" stroke-linecap="round" stroke-linejoin="round"/>
<path d="M19.125 57.375H13.4583C11.9 57.375 10.625 56.1 10.625 54.5416V50.2916C10.625 48.7333 11.9 47.4583 13.4583 47.4583H41.225" stroke="white" stroke-width="3" stroke-miterlimit="10" stroke-linecap="round" stroke-linejoin="round"/>
<path d="M48.45 47.4583H54.5417C56.1 47.4583 57.375 48.7333 57.375 50.2916V54.5416C57.375 56.1 56.1 57.375 54.5417 57.375H26.2083" stroke="white" stroke-width="3" stroke-miterlimit="10" stroke-linecap="round" stroke-linejoin="round"/>
</g>
<defs>
<filter id="filter0_i_3_64" x="0" y="0" width="68" height="72" filterUnits="userSpaceOnUse" color-interpolation-filters="sRGB">
<feFlood flood-opacity="0" result="BackgroundImageFix"/>
<feBlend mode="normal" in="SourceGraphic" in2="BackgroundImageFix" result="shape"/>
<feColorMatrix in="SourceAlpha" type="matrix" values="0 0 0 0 0 0 0 0 0 0 0 0 0 0 0 0 0 0 127 0" result="hardAlpha"/>
<feOffset dy="4"/>
<feGaussianBlur stdDeviation="2"/>
<feComposite in2="hardAlpha" operator="arithmetic" k2="-1" k3="1"/>
<feColorMatrix type="matrix" values="0 0 0 0 0.846474 0 0 0 0 0.729354 0 0 0 0 0.374217 0 0 0 1 0"/>
<feBlend mode="normal" in2="shape" result="effect1_innerShadow_3_64"/>
</filter>
</defs>
</svg>
